<svg width="800" height="300" viewBox="0 0 680 300" xmlns="http://www.w3.org/2000/svg"><circle cx="200" cy="150" r="90" fill="#e6821e"/><rect x="140" y="145" width="120" height="42" rx="8" fill="#fff"/><path d="M158 145 L172 118 L228 118 L242 145 Z" fill="#fff"/><path d="M174 143 L182 123 L218 123 L226 143 Z" fill="#e6821e"/><circle cx="165" cy="188" r="14" fill="#1a1208"/><circle cx="165" cy="188" r="7" fill="#e6821e"/><circle cx="235" cy="188" r="14" fill="#1a1208"/><circle cx="235" cy="188" r="7" fill="#e6821e"/><rect x="255" y="155" width="12" height="8" rx="2" fill="#fff9e6"/><rect x="133" y="155" width="10" height="8" rx="2" fill="#1d9e75"/><circle cx="200" cy="82" r="10" fill="#1d9e75"/><text x="200" y="87" text-anchor="middle" font-size="12" fill="#fff" font-weight="800">✦</text><text x="320" y="125" font-family="Arial Black" font-size="42" font-weight="800" fill="#e6821e">Car<tspan fill="#f0ede6">Care</tspan></text><text x="320" y="175" font-family="Arial Black" font-size="42" font-weight="800" fill="#1d9e75">Connect</text><text x="322" y="205" font-family="Arial" font-size="13" letter-spacing="3" fill="#888">YOUR CAR OUR CARE SIMPLIFIED</text><rect x="320" y="215" width="280" height="3" rx="1.5" fill="#e6821e"/><rect x="320" y="215" width="140" height="3" rx="1.5" fill="#1d9e75"/></svg>
